  <svg version="1.1" id="Layer_1" xmlns="http://www.w3.org/2000/svg" xmlns:xlink="http://www.w3.org/1999/xlink" x="0" y="0"
              viewBox="-250 -250 1000 1000"  xml:space="preserve">
           <path style="fill:#ACABB1;" d="M510.954,171.504c-0.906-2.915-2.371-5.584-4.268-7.883c-4.27-5.173-10.729-8.47-17.959-8.47h-69.818
             v-23.273c0-2.41-0.366-4.735-1.046-6.92c-0.906-2.915-2.371-5.584-4.268-7.883c-4.27-5.173-10.729-8.47-17.959-8.47H23.273
             c-7.23,0-13.689,3.297-17.959,8.468c-1.898,2.299-3.362,4.968-4.268,7.883C0.366,127.144,0,129.469,0,131.879V256v124.121
             c0,12.851,10.42,23.273,23.273,23.273h372.364c12.853,0,23.273-10.422,23.273-23.273v-23.273h69.818
             c12.853,0,23.273-10.422,23.273-23.273V256v-77.576C512,176.015,511.634,173.689,510.954,171.504z"/>
           <path style="fill:#FFB655;" d="M315.454,267.666L297.956,256l-75.461-50.308l-0.067-0.043l-0.065-0.043
             c-0.109-0.073-0.223-0.127-0.334-0.199c-0.537-0.346-1.077-0.676-1.632-0.973c-0.227-0.121-0.467-0.222-0.698-0.337
             c-0.453-0.223-0.905-0.445-1.365-0.638c-0.315-0.129-0.642-0.234-0.964-0.352c-0.389-0.141-0.779-0.292-1.173-0.411
             c-0.397-0.119-0.804-0.211-1.207-0.31c-0.332-0.081-0.661-0.172-0.993-0.239c-0.492-0.098-0.996-0.161-1.499-0.228
             c-0.253-0.033-0.506-0.082-0.759-0.105c-0.633-0.062-1.275-0.087-1.921-0.098c-0.123-0.002-0.242-0.019-0.365-0.019
             c-0.011,0-0.023,0.002-0.033,0.002c-0.784,0.002-1.559,0.04-2.324,0.116c-0.414,0.042-0.822,0.123-1.235,0.186
             c-0.33,0.051-0.666,0.087-0.991,0.152c-0.54,0.107-1.069,0.254-1.6,0.4c-0.194,0.053-0.394,0.093-0.588,0.152
             c-0.479,0.146-0.948,0.326-1.418,0.503c-0.24,0.092-0.487,0.166-0.725,0.265c-0.385,0.16-0.76,0.351-1.137,0.531
             c-0.31,0.15-0.628,0.289-0.934,0.45c-0.284,0.152-0.554,0.329-0.832,0.492c-0.38,0.225-0.766,0.442-1.133,0.687
             c-0.191,0.127-0.371,0.276-0.56,0.411c-0.427,0.306-0.858,0.613-1.263,0.945c-0.133,0.109-0.258,0.234-0.388,0.348
             c-0.438,0.377-0.874,0.757-1.283,1.167c-0.191,0.191-0.365,0.405-0.549,0.604c-0.33,0.354-0.667,0.7-0.973,1.074
             c-0.486,0.588-0.943,1.206-1.376,1.853c-0.006,0.009-0.014,0.017-0.02,0.026c-0.068,0.101-0.118,0.208-0.183,0.309
             c-0.352,0.546-0.687,1.095-0.99,1.657c-0.118,0.223-0.217,0.456-0.329,0.683c-0.227,0.458-0.451,0.915-0.645,1.382
             c-0.127,0.312-0.233,0.636-0.349,0.954c-0.143,0.393-0.292,0.784-0.413,1.181c-0.121,0.396-0.213,0.802-0.31,1.206
             c-0.081,0.332-0.174,0.661-0.24,0.995c-0.098,0.492-0.163,0.999-0.228,1.502c-0.033,0.251-0.081,0.503-0.105,0.754
             c-0.062,0.636-0.088,1.283-0.098,1.933c-0.002,0.118-0.019,0.233-0.019,0.355v0.07v0.092v18.413l-56.91-37.939
             c-10.695-7.129-25.145-4.239-32.273,6.454c-7.131,10.696-4.24,25.144,6.454,32.275L120.953,256l75.461,50.306l0.067,0.045
             l0.065,0.042c0.543,0.36,1.095,0.69,1.655,1.002c0.2,0.112,0.406,0.209,0.61,0.313c0.413,0.213,0.829,0.419,1.255,0.607
             c0.222,0.098,0.441,0.191,0.663,0.279c0.481,0.195,0.967,0.372,1.462,0.537c0.154,0.05,0.306,0.109,0.461,0.155
             c0.658,0.202,1.327,0.375,2.009,0.518c0.124,0.026,0.251,0.043,0.375,0.068c0.583,0.112,1.174,0.202,1.773,0.27
             c0.158,0.019,0.317,0.037,0.476,0.051c0.717,0.067,1.434,0.112,2.15,0.112c0.04,0,0.081-0.008,0.123-0.008
             c0.842-0.005,1.685-0.057,2.521-0.152c0.227-0.026,0.445-0.071,0.67-0.102c0.658-0.095,1.313-0.208,1.958-0.357
             c0.242-0.054,0.483-0.121,0.721-0.185c0.622-0.164,1.24-0.355,1.846-0.573c0.234-0.084,0.47-0.164,0.7-0.256
             c0.633-0.248,1.254-0.532,1.865-0.835c0.178-0.092,0.366-0.168,0.545-0.264c0.746-0.397,1.474-0.836,2.18-1.316
             c0.216-0.149,0.417-0.315,0.627-0.47c0.486-0.355,0.959-0.723,1.418-1.119c0.254-0.219,0.503-0.448,0.748-0.68
             c0.425-0.4,0.838-0.819,1.237-1.257c0.195-0.213,0.394-0.42,0.582-0.639c0.573-0.675,1.123-1.381,1.628-2.133
             c0.005-0.008,0.012-0.014,0.017-0.023c0.068-0.099,0.118-0.206,0.183-0.309c0.352-0.546,0.687-1.095,0.99-1.657
             c0.118-0.223,0.217-0.458,0.329-0.683c0.227-0.458,0.451-0.915,0.645-1.382c0.127-0.312,0.233-0.635,0.349-0.953
             c0.143-0.394,0.292-0.785,0.413-1.182c0.121-0.396,0.213-0.802,0.31-1.206c0.081-0.33,0.174-0.661,0.24-0.995
             c0.098-0.493,0.163-0.998,0.228-1.503c0.033-0.251,0.081-0.501,0.105-0.754c0.062-0.636,0.088-1.282,0.098-1.932
             c-0.002-0.121,0.015-0.236,0.015-0.354v-0.071v-0.093v-18.412l56.91,37.939c3.969,2.645,8.451,3.911,12.888,3.911
             c7.52,0,14.901-3.64,19.385-10.366C329.039,289.244,326.15,274.795,315.454,267.666z"/>
           <path style="fill:#DEDEE0;" d="M46.545,155.152V256v100.848h325.818v-23.273V256v-77.576v-23.273H46.545z M315.454,267.666
             c10.696,7.131,13.585,21.578,6.454,32.275c-4.484,6.726-11.864,10.366-19.385,10.366c-4.436,0-8.92-1.264-12.888-3.911
             l-56.908-37.941v18.412v0.093v0.071c0,0.118-0.017,0.233-0.019,0.354c-0.009,0.65-0.034,1.296-0.098,1.932
             c-0.026,0.253-0.073,0.503-0.105,0.754c-0.065,0.506-0.132,1.008-0.228,1.503c-0.067,0.334-0.161,0.664-0.24,0.995
             c-0.098,0.405-0.189,0.81-0.31,1.206c-0.119,0.397-0.27,0.788-0.413,1.182c-0.115,0.318-0.222,0.641-0.349,0.953
             c-0.194,0.467-0.42,0.925-0.645,1.382c-0.112,0.227-0.211,0.461-0.329,0.683c-0.301,0.562-0.638,1.112-0.99,1.657
             c-0.065,0.102-0.115,0.209-0.183,0.309c-0.005,0.009-0.012,0.016-0.017,0.023c-0.504,0.753-1.055,1.458-1.628,2.133
             c-0.188,0.22-0.386,0.427-0.582,0.639c-0.399,0.436-0.81,0.856-1.237,1.257c-0.245,0.23-0.493,0.461-0.748,0.68
             c-0.459,0.396-0.934,0.763-1.418,1.119c-0.211,0.155-0.413,0.321-0.627,0.47c-0.706,0.479-1.434,0.918-2.18,1.316
             c-0.177,0.096-0.365,0.172-0.545,0.264c-0.613,0.303-1.232,0.586-1.865,0.835c-0.23,0.092-0.465,0.172-0.7,0.256
             c-0.608,0.217-1.224,0.408-1.846,0.573c-0.239,0.064-0.479,0.13-0.721,0.185c-0.645,0.151-1.3,0.264-1.958,0.357
             c-0.225,0.033-0.444,0.078-0.67,0.102c-0.836,0.095-1.679,0.147-2.521,0.152c-0.042,0-0.082,0.008-0.123,0.008
             c-0.717,0-1.434-0.045-2.15-0.112c-0.16-0.014-0.318-0.033-0.476-0.051c-0.599-0.068-1.19-0.158-1.773-0.27
             c-0.124-0.025-0.251-0.042-0.375-0.068c-0.681-0.143-1.351-0.316-2.009-0.518c-0.155-0.045-0.307-0.104-0.461-0.155
             c-0.495-0.163-0.982-0.341-1.462-0.537c-0.222-0.088-0.441-0.182-0.663-0.279c-0.425-0.188-0.842-0.394-1.255-0.607
             c-0.203-0.104-0.41-0.202-0.61-0.313c-0.56-0.31-1.114-0.641-1.655-1.002l-0.065-0.042l-0.067-0.045L120.953,256l-17.498-11.667
             c-10.696-7.131-13.585-21.578-6.454-32.275c7.128-10.695,21.578-13.584,32.273-6.454l56.908,37.941v-18.413v-0.092v-0.07
             c0-0.121,0.017-0.236,0.019-0.355c0.009-0.65,0.034-1.297,0.098-1.933c0.026-0.251,0.073-0.503,0.105-0.754
             c0.065-0.503,0.132-1.008,0.228-1.502c0.067-0.334,0.161-0.663,0.24-0.995c0.098-0.405,0.189-0.81,0.31-1.206
             c0.119-0.397,0.27-0.788,0.413-1.181c0.115-0.318,0.222-0.642,0.349-0.954c0.194-0.467,0.42-0.925,0.645-1.382
             c0.112-0.227,0.211-0.461,0.329-0.683c0.301-0.562,0.638-1.112,0.99-1.657c0.065-0.101,0.115-0.208,0.183-0.309
             c0.006-0.009,0.014-0.017,0.02-0.026c0.431-0.647,0.891-1.264,1.376-1.853c0.306-0.374,0.642-0.721,0.973-1.074
             c0.185-0.199,0.358-0.413,0.549-0.604c0.41-0.41,0.846-0.79,1.283-1.167c0.13-0.112,0.254-0.237,0.388-0.348
             c0.407-0.334,0.836-0.639,1.263-0.945c0.189-0.135,0.369-0.284,0.56-0.411c0.366-0.245,0.752-0.464,1.133-0.687
             c0.278-0.163,0.549-0.341,0.832-0.492c0.304-0.161,0.622-0.299,0.934-0.45c0.377-0.18,0.752-0.371,1.137-0.531
             c0.236-0.098,0.484-0.174,0.725-0.265c0.47-0.177,0.939-0.357,1.418-0.503c0.194-0.059,0.394-0.098,0.588-0.152
             c0.531-0.146,1.061-0.292,1.6-0.4c0.326-0.065,0.661-0.099,0.991-0.152c0.413-0.064,0.821-0.144,1.235-0.186
             c0.765-0.076,1.541-0.115,2.324-0.116c0.011,0,0.023-0.002,0.033-0.002c0.123,0,0.242,0.017,0.365,0.019
             c0.645,0.011,1.288,0.034,1.921,0.098c0.253,0.025,0.506,0.073,0.759,0.105c0.503,0.067,1.005,0.132,1.499,0.228
             c0.332,0.067,0.661,0.16,0.993,0.239c0.405,0.099,0.81,0.191,1.207,0.31c0.394,0.119,0.784,0.27,1.173,0.411
             c0.321,0.116,0.649,0.223,0.963,0.352c0.461,0.192,0.912,0.416,1.365,0.638c0.231,0.115,0.472,0.216,0.698,0.337
             c0.554,0.296,1.095,0.627,1.632,0.973c0.11,0.071,0.225,0.126,0.334,0.199l0.065,0.043l0.067,0.043L297.956,256L315.454,267.666z"/>
           <path style="fill:#EE8700;" d="M222.428,205.649l-0.065-0.043c-0.109-0.073-0.222-0.127-0.334-0.199
             c-0.537-0.346-1.077-0.676-1.632-0.973c-0.227-0.121-0.467-0.222-0.698-0.337c-0.453-0.223-0.905-0.445-1.365-0.638
             c-0.315-0.129-0.642-0.234-0.964-0.352c-0.389-0.141-0.779-0.292-1.173-0.411c-0.397-0.119-0.804-0.211-1.207-0.31
             c-0.332-0.081-0.661-0.172-0.993-0.239c-0.492-0.098-0.996-0.161-1.499-0.228c-0.253-0.033-0.506-0.082-0.759-0.105
             c-0.633-0.062-1.275-0.087-1.921-0.098c-0.123-0.002-0.242-0.019-0.365-0.019c-0.011,0-0.023,0.002-0.033,0.002
             c-0.784,0.002-1.559,0.04-2.324,0.116c-0.414,0.042-0.822,0.123-1.235,0.186c-0.33,0.051-0.666,0.087-0.991,0.152
             c-0.54,0.107-1.069,0.254-1.6,0.4c-0.194,0.053-0.394,0.092-0.588,0.152c-0.479,0.146-0.948,0.326-1.418,0.503
             c-0.24,0.092-0.487,0.166-0.725,0.265c-0.385,0.16-0.76,0.351-1.137,0.531c-0.31,0.15-0.628,0.289-0.934,0.45
             c-0.284,0.152-0.554,0.329-0.832,0.492c-0.38,0.225-0.766,0.442-1.133,0.687c-0.191,0.127-0.371,0.276-0.56,0.411
             c-0.427,0.306-0.858,0.613-1.263,0.945c-0.133,0.109-0.258,0.234-0.388,0.348c-0.438,0.377-0.874,0.757-1.283,1.167
             c-0.191,0.191-0.365,0.405-0.549,0.604c-0.33,0.352-0.667,0.7-0.973,1.074c-0.486,0.588-0.943,1.206-1.376,1.853
             c-0.006,0.009-0.014,0.017-0.02,0.026c-0.068,0.101-0.118,0.208-0.183,0.309c-0.352,0.546-0.687,1.095-0.99,1.657
             c-0.118,0.222-0.217,0.456-0.329,0.683c-0.227,0.458-0.451,0.915-0.645,1.382c-0.127,0.312-0.233,0.636-0.349,0.954
             c-0.143,0.393-0.292,0.784-0.413,1.181c-0.121,0.396-0.213,0.802-0.31,1.206c-0.081,0.332-0.174,0.661-0.24,0.995
             c-0.098,0.492-0.163,0.998-0.228,1.502c-0.033,0.251-0.081,0.503-0.105,0.754c-0.062,0.636-0.088,1.283-0.098,1.933
             c-0.002,0.118-0.019,0.233-0.019,0.355v0.07v0.092v18.413l-56.91-37.939c-10.695-7.129-25.145-4.239-32.273,6.454
             c-7.131,10.696-4.24,25.144,6.454,32.275L120.953,256h177.003l-75.461-50.308L222.428,205.649z"/>
           <path style="fill:#D6D5D8;" d="M103.455,244.333c-10.696-7.131-13.585-21.578-6.454-32.275c7.128-10.695,21.578-13.584,32.273-6.454
             l56.908,37.941v-18.413v-0.092v-0.07c0-0.121,0.017-0.236,0.019-0.355c0.009-0.65,0.034-1.297,0.098-1.933
             c0.026-0.251,0.073-0.503,0.105-0.754c0.065-0.503,0.132-1.008,0.228-1.502c0.067-0.334,0.161-0.663,0.24-0.995
             c0.098-0.405,0.189-0.81,0.31-1.206c0.119-0.397,0.27-0.788,0.413-1.181c0.115-0.318,0.222-0.642,0.349-0.954
             c0.194-0.467,0.42-0.925,0.645-1.382c0.112-0.227,0.211-0.461,0.329-0.683c0.301-0.562,0.638-1.112,0.99-1.657
             c0.065-0.101,0.115-0.208,0.183-0.309c0.006-0.009,0.014-0.017,0.02-0.026c0.431-0.647,0.891-1.264,1.376-1.853
             c0.306-0.374,0.642-0.721,0.973-1.074c0.185-0.199,0.358-0.413,0.549-0.604c0.41-0.41,0.846-0.79,1.283-1.167
             c0.13-0.112,0.254-0.237,0.388-0.348c0.407-0.334,0.836-0.639,1.263-0.945c0.189-0.135,0.369-0.284,0.56-0.411
             c0.366-0.245,0.752-0.464,1.133-0.687c0.278-0.163,0.549-0.341,0.832-0.492c0.304-0.161,0.622-0.299,0.934-0.45
             c0.377-0.18,0.752-0.371,1.137-0.531c0.236-0.098,0.484-0.174,0.725-0.265c0.47-0.177,0.939-0.357,1.418-0.503
             c0.194-0.059,0.394-0.098,0.588-0.152c0.531-0.146,1.061-0.293,1.6-0.4c0.326-0.065,0.661-0.099,0.991-0.152
             c0.413-0.064,0.821-0.144,1.235-0.186c0.765-0.076,1.541-0.115,2.324-0.116c0.011,0,0.023-0.002,0.033-0.002
             c0.123,0,0.242,0.017,0.365,0.019c0.645,0.011,1.288,0.034,1.921,0.098c0.253,0.025,0.506,0.073,0.759,0.105
             c0.503,0.067,1.005,0.132,1.499,0.228c0.332,0.067,0.661,0.16,0.993,0.239c0.405,0.099,0.81,0.191,1.207,0.31
             c0.394,0.119,0.784,0.27,1.173,0.411c0.321,0.116,0.649,0.223,0.963,0.352c0.461,0.192,0.912,0.416,1.365,0.638
             c0.231,0.115,0.472,0.216,0.698,0.337c0.554,0.296,1.095,0.627,1.632,0.973c0.11,0.071,0.225,0.126,0.334,0.199l0.065,0.043
             l0.067,0.043L297.956,256h74.408v-77.576v-23.273H46.545V256h74.408L103.455,244.333z"/>
           <path style="fill:#898890;" d="M488.727,155.152h-69.818v-23.273c0-12.853-10.42-23.273-23.273-23.273H23.273
             C10.42,108.606,0,119.026,0,131.879V256h46.545V155.152h325.818v23.273V256H512v-77.576C512,165.571,501.58,155.152,488.727,155.152
             z"/>
           </svg>